# Blender v2.79 (sub 0) OBJ File: 'drill.blend'
# www.blender.org
mtllib Driller_Case.mtl
o Driller_Case_Cube.002
v 0.616226 0.030898 0.702392
v 0.616226 -0.000349 0.702392
v 0.362161 0.031869 0.448328
v 0.362161 -0.000349 0.448328
v 0.702938 0.030898 0.615681
v 0.702938 -0.000349 0.615681
v 0.448873 0.031869 0.361616
v 0.448873 -0.000349 0.361616
v 0.352211 0.703292 -0.352211
v 0.352211 1.749435 0.352211
v 0.352211 0.703292 0.352211
v -0.352211 1.749435 -0.352211
v -0.352211 0.703292 -0.352211
v -0.352211 0.703292 0.352211
v 0.352211 1.749435 -0.352211
v -0.352211 1.749435 0.352211
v 0.270547 1.749435 -0.270547
v 0.270547 1.749435 0.270547
v -0.270547 1.749435 -0.270547
v -0.270547 1.749435 0.270547
v 0.270547 1.810830 -0.270547
v 0.270547 1.810830 0.270547
v -0.270547 1.810830 -0.270547
v -0.270547 1.810830 0.270547
v 0.175675 1.810830 -0.175675
v 0.175675 1.810830 0.175675
v -0.175675 1.810830 -0.175675
v -0.175675 1.810830 0.175675
v 0.175675 1.864039 -0.175675
v 0.175675 1.864039 0.175675
v -0.175675 1.864039 -0.175675
v -0.175675 1.864039 0.175675
v -0.352211 1.688588 -0.311240
v -0.352211 0.764140 -0.311240
v -0.352211 0.764140 0.311240
v -0.352211 1.688588 0.311240
v -0.304908 1.688588 -0.311240
v -0.304908 0.764140 -0.311240
v -0.304908 0.764140 0.311240
v -0.304908 1.688588 0.311240
v -0.304908 1.636448 -0.246652
v -0.304908 1.305432 -0.246652
v -0.304908 1.305432 0.246652
v -0.304908 1.636448 0.246652
v -0.284439 1.636448 -0.246652
v -0.284439 1.305432 -0.246652
v -0.284439 1.305432 0.246652
v -0.284439 1.636448 0.246652
v -0.304908 1.304912 -0.311240
v -0.304908 1.304741 0.311240
v -0.304908 0.764140 0.000102
v -0.190437 0.703292 0.190437
v 0.190437 0.703292 0.190437
v 0.190437 0.703292 -0.190437
v -0.190437 0.703292 -0.190437
v 0.000000 0.703292 0.352211
v 0.000000 0.703292 0.270232
v -0.352211 0.703292 0.000000
v -0.270232 0.703292 -0.000000
v 0.000000 0.703292 -0.270232
v 0.000000 0.703292 -0.352211
v 0.352211 0.703292 0.000000
v 0.270232 0.703292 -0.000000
v -0.190437 0.744495 0.190437
v 0.190437 0.744495 0.190437
v 0.190437 0.744495 -0.190437
v -0.190437 0.744495 -0.190437
v 0.000000 0.744495 0.270232
v -0.270232 0.744495 0.000000
v 0.000000 0.744495 -0.270232
v 0.270232 0.744495 0.000000
v -0.287853 1.175335 -0.176267
v -0.287853 1.210755 -0.140847
v -0.287853 1.175335 -0.140847
v -0.323273 1.210755 -0.176267
v -0.323273 1.175335 -0.176267
v -0.323273 1.210755 -0.140847
v -0.000000 0.744495 0.000000
v -0.323273 1.175335 -0.140847
v -0.287853 1.210755 -0.176267
v -0.287853 1.175335 -0.117860
v -0.287853 1.210755 -0.082440
v -0.287853 1.175335 -0.082440
v -0.323273 1.210755 -0.117860
v -0.323273 1.175335 -0.117860
v -0.323273 1.210755 -0.082440
v -0.323273 1.175335 -0.082440
v -0.287853 1.210755 -0.117860
v -0.287853 1.175335 -0.059987
v -0.287853 1.210755 -0.024567
v -0.287853 1.175335 -0.024567
v -0.323273 1.210755 -0.059987
v -0.323273 1.175335 -0.059987
v -0.323273 1.210755 -0.024567
v -0.323273 1.175335 -0.024567
v -0.287853 1.210755 -0.059987
v -0.287853 1.124696 -0.176267
v -0.287853 1.160116 -0.140847
v -0.287853 1.124696 -0.140847
v -0.323273 1.160116 -0.176267
v -0.323273 1.124696 -0.176267
v -0.323273 1.160116 -0.140847
v -0.323273 1.124696 -0.140847
v -0.287853 1.160116 -0.176267
v -0.287853 1.124696 -0.117860
v -0.287853 1.160116 -0.082440
v -0.287853 1.124696 -0.082440
v -0.323273 1.160116 -0.117860
v -0.323273 1.124696 -0.117860
v -0.323273 1.160116 -0.082440
v -0.323273 1.124696 -0.082440
v -0.287853 1.160116 -0.117860
v -0.287853 1.124696 -0.059987
v -0.287853 1.160116 -0.024567
v -0.287853 1.124696 -0.024567
v -0.323273 1.160116 -0.059987
v -0.323273 1.124696 -0.059987
v -0.323273 1.160116 -0.024567
v -0.323273 1.124696 -0.024567
v -0.287853 1.160116 -0.059987
v -0.287853 1.071645 -0.176267
v -0.287853 1.107065 -0.140847
v -0.287853 1.071645 -0.140847
v -0.323273 1.107065 -0.176267
v -0.323273 1.071645 -0.176267
v -0.323273 1.107065 -0.140847
v -0.323273 1.071645 -0.140847
v -0.287853 1.107065 -0.176267
v -0.287853 1.071645 -0.117860
v -0.287853 1.107065 -0.082440
v -0.287853 1.071645 -0.082440
v -0.323273 1.107065 -0.117860
v -0.323273 1.071645 -0.117860
v -0.323273 1.107065 -0.082440
v -0.323273 1.071645 -0.082440
v -0.287853 1.107065 -0.117860
v -0.287853 1.071645 -0.059987
v -0.287853 1.107065 -0.024567
v -0.287853 1.071645 -0.024567
v -0.323273 1.107065 -0.059987
v -0.323273 1.071645 -0.059987
v -0.323273 1.107065 -0.024567
v -0.323273 1.071645 -0.024567
v -0.287853 1.107065 -0.059987
v -0.287853 1.025920 0.038107
v -0.287853 1.244423 0.198056
v -0.287853 1.025920 0.198056
v -0.323273 1.244423 0.038107
v -0.323273 1.025920 0.038107
v -0.323273 1.244423 0.198056
v -0.323273 1.025920 0.198056
v -0.287853 1.244423 0.038107
v -0.287853 0.986276 0.051850
v -0.287853 1.009167 0.184313
v -0.287853 0.986276 0.184313
v -0.323273 1.009167 0.051850
v -0.323273 0.986276 0.051850
v -0.323273 1.009167 0.184313
v -0.323273 0.986276 0.184313
v -0.287853 1.009167 0.051850
v -0.287853 0.798995 -0.215522
v -0.287853 0.861264 -0.136697
v -0.287853 0.798995 -0.180102
v -0.323273 0.861264 -0.172117
v -0.323273 0.798995 -0.215522
v -0.323273 0.861264 -0.136697
v -0.323273 0.798995 -0.180102
v -0.287853 0.861264 -0.172117
v -0.287853 0.798995 -0.156442
v -0.287853 0.861264 -0.077617
v -0.287853 0.798995 -0.121023
v -0.323273 0.861264 -0.113037
v -0.323273 0.798995 -0.156442
v -0.323273 0.861264 -0.077617
v -0.323273 0.798995 -0.121023
v -0.287853 0.861264 -0.113037
v -0.287853 0.798995 -0.097363
v -0.287853 0.861264 -0.018538
v -0.287853 0.798995 -0.061943
v -0.323273 0.861264 -0.053958
v -0.323273 0.798995 -0.097363
v -0.323273 0.861264 -0.018538
v -0.323273 0.798995 -0.061943
v -0.287853 0.861264 -0.053958
v -0.287853 0.798995 -0.038284
v -0.287853 0.861264 0.040541
v -0.287853 0.798995 -0.002864
v -0.323273 0.861264 0.005121
v -0.323273 0.798995 -0.038284
v -0.323273 0.861264 0.040541
v -0.323273 0.798995 -0.002864
v -0.287853 0.861264 0.005121
v -0.287853 0.798995 0.023207
v -0.287853 0.861264 0.102032
v -0.287853 0.798995 0.058627
v -0.323273 0.861264 0.066612
v -0.323273 0.798995 0.023207
v -0.323273 0.861264 0.102032
v -0.323273 0.798995 0.058627
v -0.287853 0.861264 0.066612
v -0.287853 0.798995 0.082286
v -0.287853 0.861264 0.161111
v -0.287853 0.798995 0.117706
v -0.323273 0.861264 0.125691
v -0.323273 0.798995 0.082286
v -0.323273 0.861264 0.161111
v -0.323273 0.798995 0.117706
v -0.287853 0.861264 0.125691
v -0.287853 0.798995 0.141365
v -0.287853 0.861264 0.220190
v -0.287853 0.798995 0.176785
v -0.323273 0.861264 0.184770
v -0.323273 0.798995 0.141365
v -0.323273 0.861264 0.220190
v -0.323273 0.798995 0.176785
v -0.287853 0.861264 0.184770
v 0.503422 0.017417 0.502877
v 0.241445 0.725630 0.240900
v 0.533057 0.017455 0.490601
v 0.271080 0.725680 0.228625
v 0.562692 0.017546 0.502877
v 0.300715 0.725802 0.240900
v 0.574967 0.017637 0.532511
v 0.312990 0.725925 0.270535
v 0.562692 0.017674 0.562147
v 0.300715 0.725975 0.300170
v 0.533057 0.017637 0.574422
v 0.271080 0.725925 0.312445
v 0.503422 0.017546 0.562147
v 0.241445 0.725802 0.300170
v 0.491146 0.017455 0.532512
v 0.229170 0.725680 0.270535
v 0.641846 0.065911 0.728013
v 0.655169 0.040982 0.741335
v 0.741880 0.040982 0.654623
v 0.728558 0.065911 0.641301
v 0.322515 0.040729 0.408681
v 0.339115 0.062795 0.425281
v 0.425826 0.062795 0.338570
v 0.409226 0.040729 0.321970
v -0.701137 0.030898 0.612680
v -0.701137 -0.000349 0.612680
v -0.447073 0.031869 0.358616
v -0.447073 -0.000349 0.358616
v -0.614426 0.030898 0.699392
v -0.614426 -0.000349 0.699392
v -0.360361 0.031869 0.445327
v -0.360361 -0.000349 0.445327
v -0.501622 0.017417 0.499876
v -0.239645 0.725630 0.237900
v -0.489346 0.017455 0.529512
v -0.227370 0.725680 0.267535
v -0.501622 0.017546 0.559146
v -0.239645 0.725802 0.297170
v -0.531256 0.017637 0.571422
v -0.269280 0.725925 0.309445
v -0.560892 0.017674 0.559146
v -0.298915 0.725975 0.297169
v -0.573167 0.017637 0.529511
v -0.311190 0.725925 0.267534
v -0.560892 0.017546 0.499876
v -0.298915 0.725802 0.237900
v -0.531257 0.017455 0.487601
v -0.269280 0.725680 0.225625
v -0.726758 0.065911 0.638301
v -0.740080 0.040982 0.651623
v -0.653368 0.040982 0.738335
v -0.640046 0.065911 0.725012
v -0.407426 0.040729 0.318969
v -0.424026 0.062795 0.335569
v -0.337315 0.062795 0.422281
v -0.320715 0.040729 0.405681
v -0.614426 0.030898 -0.701683
v -0.614426 -0.000349 -0.701683
v -0.360361 0.031869 -0.447618
v -0.360361 -0.000349 -0.447618
v -0.701137 0.030898 -0.614971
v -0.701137 -0.000349 -0.614971
v -0.447073 0.031869 -0.360906
v -0.447073 -0.000349 -0.360906
v -0.501622 0.017417 -0.502167
v -0.239645 0.725630 -0.240190
v -0.531257 0.017455 -0.489892
v -0.269280 0.725680 -0.227915
v -0.560892 0.017546 -0.502167
v -0.298915 0.725802 -0.240190
v -0.573167 0.017637 -0.531802
v -0.311190 0.725925 -0.269825
v -0.560892 0.017674 -0.561437
v -0.298915 0.725975 -0.299460
v -0.531256 0.017637 -0.573712
v -0.269280 0.725925 -0.311735
v -0.501621 0.017546 -0.561437
v -0.239645 0.725802 -0.299460
v -0.489346 0.017455 -0.531802
v -0.227370 0.725680 -0.269825
v -0.640046 0.065911 -0.727303
v -0.653368 0.040982 -0.740625
v -0.740080 0.040982 -0.653914
v -0.726758 0.065911 -0.640591
v -0.320715 0.040729 -0.407972
v -0.337315 0.062795 -0.424572
v -0.424026 0.062795 -0.337860
v -0.407426 0.040729 -0.321260
v 0.699937 0.030898 -0.614971
v 0.699937 -0.000349 -0.614971
v 0.445873 0.031869 -0.360906
v 0.445873 -0.000349 -0.360906
v 0.613226 0.030898 -0.701683
v 0.613226 -0.000349 -0.701683
v 0.359161 0.031869 -0.447618
v 0.359161 -0.000349 -0.447618
v 0.500422 0.017417 -0.502167
v 0.238445 0.725630 -0.240190
v 0.488146 0.017455 -0.531802
v 0.226170 0.725680 -0.269825
v 0.500422 0.017546 -0.561437
v 0.238445 0.725802 -0.299460
v 0.530057 0.017637 -0.573712
v 0.268080 0.725925 -0.311735
v 0.559692 0.017674 -0.561437
v 0.297715 0.725975 -0.299460
v 0.571967 0.017637 -0.531802
v 0.309990 0.725925 -0.269825
v 0.559692 0.017546 -0.502167
v 0.297715 0.725802 -0.240190
v 0.530057 0.017455 -0.489892
v 0.268080 0.725680 -0.227915
v 0.725558 0.065911 -0.640591
v 0.738880 0.040982 -0.653914
v 0.652168 0.040982 -0.740625
v 0.638846 0.065911 -0.727303
v 0.406226 0.040729 -0.321260
v 0.422826 0.062795 -0.337860
v 0.336115 0.062795 -0.424572
v 0.319515 0.040729 -0.407972
v 0.000000 1.749435 -0.352211
v 0.352211 1.749435 0.000000
v 0.000000 1.749435 0.352211
v -0.352211 0.764140 -0.000000
v 0.000000 1.864039 0.175675
v 0.000000 1.810830 -0.270547
v 0.000000 1.749435 -0.270547
v 0.000000 1.810830 0.175675
v 0.000000 1.864039 -0.175675
v 0.000000 1.810830 0.270547
v 0.000000 1.810830 -0.175675
v 0.000000 1.749435 0.270547
v 0.175675 1.810830 0.000000
v -0.270547 1.810830 0.000000
v 0.270547 1.749435 0.000000
v -0.352211 1.749435 0.000000
v 0.175675 1.864039 0.000000
v -0.175675 1.810830 0.000000
v -0.270547 1.749435 0.000000
v 0.000000 1.864039 0.000000
v -0.352211 1.688588 0.000000
v -0.175675 1.864039 0.000000
v -0.304908 1.688588 0.000000
v 0.270547 1.810830 0.000000
v -0.284439 1.636448 0.000000
v -0.304908 1.636448 0.000000
v -0.284439 1.305432 0.000000
v -0.304908 1.305432 0.000000
vn -0.7071 0.0000 0.7071
vn 0.7071 0.0000 -0.7071
vn 0.4244 -0.7998 0.4244
vn 0.0019 1.0000 0.0019
vn 0.0000 -1.0000 0.0000
vn 0.0000 0.0000 1.0000
vn 1.0000 0.0000 0.0000
vn 0.0000 0.0000 -1.0000
vn -1.0000 -0.0000 0.0000
vn 0.0000 1.0000 0.0000
vn -0.3865 0.0000 -0.9223
vn 0.3865 0.0000 0.9223
vn 0.3865 0.0000 -0.9223
vn -0.9223 0.0000 -0.3865
vn -0.9223 0.0000 0.3865
vn -0.3865 0.0000 0.9223
vn 0.9223 0.0000 -0.3865
vn 0.9223 0.0000 0.3865
vn 0.5641 0.6030 0.5641
vn -0.4914 0.7191 -0.4914
vn -0.4843 0.7286 -0.4843
vn 0.4867 0.7254 0.4867
vn -0.4179 -0.8067 -0.4179
vn -0.7071 0.0000 -0.7071
vn 0.7071 0.0000 0.7071
vn -0.4244 -0.7998 0.4244
vn -0.0019 1.0000 0.0019
vn -0.5641 0.6030 0.5641
vn 0.4914 0.7191 -0.4914
vn 0.4843 0.7286 -0.4843
vn -0.4867 0.7254 0.4867
vn 0.4179 -0.8067 -0.4179
vn -0.4244 -0.7998 -0.4244
vn -0.0019 1.0000 -0.0019
vn -0.5641 0.6030 -0.5641
vn 0.4914 0.7191 0.4914
vn 0.4843 0.7286 0.4843
vn -0.4867 0.7254 -0.4867
vn 0.4179 -0.8067 0.4179
vn 0.4244 -0.7998 -0.4244
vn 0.0019 1.0000 -0.0019
vn 0.5641 0.6030 -0.5641
vn -0.4914 0.7191 0.4914
vn -0.4843 0.7286 0.4843
vn 0.4867 0.7254 -0.4867
vn -0.4179 -0.8067 0.4179
vn 0.9057 0.1960 -0.3759
vn 0.8321 0.4350 0.3440
vn 0.3440 0.4350 0.8321
vn -0.3759 0.1960 0.9057
vn -0.9057 -0.1960 0.3759
vn -0.8321 -0.4351 -0.3440
vn -0.0029 1.0000 -0.0029
vn 0.0022 -1.0000 0.0022
vn -0.3440 -0.4351 -0.8321
vn 0.3759 -0.1960 -0.9057
vn 0.3759 0.1960 0.9057
vn -0.3440 0.4350 0.8321
vn -0.8321 0.4350 0.3440
vn -0.9057 0.1960 -0.3759
vn -0.3759 -0.1960 -0.9057
vn 0.3440 -0.4351 -0.8321
vn 0.0029 1.0000 -0.0029
vn -0.0022 -1.0000 0.0022
vn 0.8321 -0.4351 -0.3440
vn 0.9057 -0.1960 0.3759
vn -0.9057 0.1960 0.3759
vn -0.8321 0.4350 -0.3440
vn -0.3440 0.4350 -0.8321
vn 0.3759 0.1960 -0.9057
vn 0.9057 -0.1960 -0.3759
vn 0.8321 -0.4351 0.3440
vn 0.0029 1.0000 0.0029
vn -0.0022 -1.0000 -0.0022
vn 0.3440 -0.4351 0.8321
vn -0.3759 -0.1960 0.9057
vn -0.3759 0.1960 -0.9057
vn 0.3440 0.4350 -0.8321
vn 0.8321 0.4350 -0.3440
vn 0.9057 0.1960 0.3759
vn 0.3759 -0.1960 0.9057
vn -0.3440 -0.4351 0.8321
vn -0.0029 1.0000 0.0029
vn 0.0022 -1.0000 -0.0022
vn -0.8321 -0.4351 0.3440
vn -0.9057 -0.1960 -0.3759
vn 0.0000 -0.5718 0.8204
vn 0.0000 0.5718 -0.8204
usemtl Red
s off
f 1//1 3//1 4//1 2//1
f 8//2 240//2 239//2 7//2
f 7//2 5//2 6//2 8//2
f 6//3 235//3 234//3 2//3
f 3//4 1//4 5//4 7//4
f 8//5 6//5 2//5 4//5
f 14//5 58//5 59//5 52//5
f 11//6 10//6 339//6 56//6
f 9//7 15//7 338//7 62//7
f 13//8 12//8 337//8 61//8
f 13//9 58//9 340//9 34//9
f 12//10 352//10 355//10 19//10
f 18//7 351//7 360//7 22//7
f 10//10 338//10 351//10 18//10
f 15//10 337//10 343//10 17//10
f 16//10 339//10 348//10 20//10
f 21//10 342//10 347//10 25//10
f 17//8 343//8 342//8 21//8
f 20//6 348//6 346//6 24//6
f 19//9 355//9 350//9 23//9
f 27//9 354//9 358//9 31//9
f 24//10 346//10 344//10 28//10
f 23//10 350//10 354//10 27//10
f 22//10 360//10 349//10 26//10
f 29//10 345//10 356//10 353//10
f 26//7 349//7 353//7 30//7
f 25//8 347//8 345//8 29//8
f 28//6 344//6 341//6 32//6
f 16//9 352//9 357//9 36//9
f 14//9 16//9 36//9 35//9
f 12//9 13//9 34//9 33//9
f 34//10 340//10 51//10 38//10
f 40//5 36//5 357//5 359//5
f 343//8 19//8 23//8 342//8
f 53//11 57//11 68//11 65//11
f 9//5 62//5 63//5 54//5
f 13//5 61//5 60//5 55//5
f 11//5 56//5 57//5 53//5
f 57//5 56//5 14//5 52//5
f 59//5 58//5 13//5 55//5
f 60//5 61//5 9//5 54//5
f 63//5 62//5 11//5 53//5
f 55//12 60//12 70//12 67//12
f 57//13 52//13 64//13 68//13
f 63//14 53//14 65//14 71//14
f 54//15 63//15 71//15 66//15
f 60//16 54//16 66//16 70//16
f 52//17 59//17 69//17 64//17
f 59//18 55//18 67//18 69//18
f 80//10 75//10 77//10 73//10
f 76//5 72//5 74//5 79//5
f 74//6 73//6 77//6 79//6
f 72//7 80//7 73//7 74//7
f 76//8 75//8 80//8 72//8
f 79//9 77//9 75//9 76//9
f 88//10 84//10 86//10 82//10
f 85//5 81//5 83//5 87//5
f 83//6 82//6 86//6 87//6
f 81//7 88//7 82//7 83//7
f 85//8 84//8 88//8 81//8
f 87//9 86//9 84//9 85//9
f 96//10 92//10 94//10 90//10
f 93//5 89//5 91//5 95//5
f 91//6 90//6 94//6 95//6
f 89//7 96//7 90//7 91//7
f 93//8 92//8 96//8 89//8
f 95//9 94//9 92//9 93//9
f 104//10 100//10 102//10 98//10
f 101//5 97//5 99//5 103//5
f 99//6 98//6 102//6 103//6
f 97//7 104//7 98//7 99//7
f 101//8 100//8 104//8 97//8
f 103//9 102//9 100//9 101//9
f 112//10 108//10 110//10 106//10
f 109//5 105//5 107//5 111//5
f 107//6 106//6 110//6 111//6
f 105//7 112//7 106//7 107//7
f 109//8 108//8 112//8 105//8
f 111//9 110//9 108//9 109//9
f 120//10 116//10 118//10 114//10
f 117//5 113//5 115//5 119//5
f 115//6 114//6 118//6 119//6
f 113//7 120//7 114//7 115//7
f 117//8 116//8 120//8 113//8
f 119//9 118//9 116//9 117//9
f 128//10 124//10 126//10 122//10
f 125//5 121//5 123//5 127//5
f 123//6 122//6 126//6 127//6
f 121//7 128//7 122//7 123//7
f 125//8 124//8 128//8 121//8
f 127//9 126//9 124//9 125//9
f 136//10 132//10 134//10 130//10
f 133//5 129//5 131//5 135//5
f 131//6 130//6 134//6 135//6
f 129//7 136//7 130//7 131//7
f 133//8 132//8 136//8 129//8
f 135//9 134//9 132//9 133//9
f 144//10 140//10 142//10 138//10
f 141//5 137//5 139//5 143//5
f 139//6 138//6 142//6 143//6
f 137//7 144//7 138//7 139//7
f 141//8 140//8 144//8 137//8
f 143//9 142//9 140//9 141//9
f 152//10 148//10 150//10 146//10
f 149//5 145//5 147//5 151//5
f 147//6 146//6 150//6 151//6
f 145//7 152//7 146//7 147//7
f 149//8 148//8 152//8 145//8
f 151//9 150//9 148//9 149//9
f 160//10 156//10 158//10 154//10
f 157//5 153//5 155//5 159//5
f 155//6 154//6 158//6 159//6
f 153//7 160//7 154//7 155//7
f 157//8 156//8 160//8 153//8
f 159//9 158//9 156//9 157//9
f 236//19 233//19 234//19 235//19
f 5//2 236//2 235//2 6//2
f 2//1 234//1 233//1 1//1
f 1//20 233//20 236//20 5//20
f 238//21 239//21 240//21 237//21
f 7//22 239//22 238//22 3//22
f 4//23 237//23 240//23 8//23
f 3//1 238//1 237//1 4//1
f 241//24 243//24 244//24 242//24
f 248//25 272//25 271//25 247//25
f 247//25 245//25 246//25 248//25
f 246//26 267//26 266//26 242//26
f 243//27 241//27 245//27 247//27
f 248//5 246//5 242//5 244//5
f 268//28 265//28 266//28 267//28
f 245//25 268//25 267//25 246//25
f 242//24 266//24 265//24 241//24
f 241//29 265//29 268//29 245//29
f 270//30 271//30 272//30 269//30
f 247//31 271//31 270//31 243//31
f 244//32 269//32 272//32 248//32
f 243//24 270//24 269//24 244//24
f 273//2 275//2 276//2 274//2
f 280//1 304//1 303//1 279//1
f 279//1 277//1 278//1 280//1
f 278//33 299//33 298//33 274//33
f 275//34 273//34 277//34 279//34
f 280//5 278//5 274//5 276//5
f 300//35 297//35 298//35 299//35
f 277//1 300//1 299//1 278//1
f 274//2 298//2 297//2 273//2
f 273//36 297//36 300//36 277//36
f 302//37 303//37 304//37 301//37
f 279//38 303//38 302//38 275//38
f 276//39 301//39 304//39 280//39
f 275//2 302//2 301//2 276//2
f 305//25 307//25 308//25 306//25
f 312//24 336//24 335//24 311//24
f 311//24 309//24 310//24 312//24
f 310//40 331//40 330//40 306//40
f 307//41 305//41 309//41 311//41
f 312//5 310//5 306//5 308//5
f 332//42 329//42 330//42 331//42
f 309//24 332//24 331//24 310//24
f 306//25 330//25 329//25 305//25
f 305//43 329//43 332//43 309//43
f 334//44 335//44 336//44 333//44
f 311//45 335//45 334//45 307//45
f 308//46 333//46 336//46 312//46
f 307//25 334//25 333//25 308//25
f 337//8 15//8 9//8 61//8
f 338//7 10//7 11//7 62//7
f 339//6 16//6 14//6 56//6
f 58//9 14//9 35//9 340//9
f 345//10 31//10 358//10 356//10
f 344//6 26//6 30//6 341//6
f 337//10 12//10 19//10 343//10
f 346//10 22//10 26//10 344//10
f 348//6 18//6 22//6 346//6
f 339//10 10//10 18//10 348//10
f 347//8 27//8 31//8 345//8
f 342//10 23//10 27//10 347//10
f 351//7 17//7 21//7 360//7
f 358//10 32//10 341//10 356//10
f 354//9 28//9 32//9 358//9
f 350//10 24//10 28//10 354//10
f 356//10 341//10 30//10 353//10
f 33//5 37//5 359//5 357//5
f 352//10 16//10 20//10 355//10
f 338//10 15//10 17//10 351//10
f 355//9 20//9 24//9 350//9
f 360//10 21//10 25//10 349//10
f 349//7 25//7 29//7 353//7
f 352//9 12//9 33//9 357//9
f 340//10 35//10 39//10 51//10
f 37//6 33//6 49//6
f 38//6 49//6 34//6
f 34//6 49//6 33//6
f 35//8 50//8 39//8
f 36//8 50//8 35//8
f 50//8 36//8 40//8
usemtl Gray
f 43//9 51//9 39//9 50//9
f 44//5 362//5 361//5 48//5
f 40//9 359//9 362//9 44//9
f 37//9 49//9 42//9 41//9
f 41//6 42//6 46//6 45//6
f 43//8 44//8 48//8 47//8
f 42//10 364//10 363//10 46//10
f 43//9 50//9 40//9 44//9
f 42//9 51//9 364//9
f 42//9 49//9 38//9 51//9
f 70//5 66//5 78//5
f 68//5 64//5 78//5
f 67//5 70//5 78//5
f 65//5 68//5 78//5
f 71//5 65//5 78//5
f 69//5 67//5 78//5
f 64//5 69//5 78//5
f 66//5 71//5 78//5
f 222//47 224//47 223//47 221//47
f 224//48 226//48 225//48 223//48
f 226//49 228//49 227//49 225//49
f 228//50 230//50 229//50 227//50
f 230//51 232//51 231//51 229//51
f 232//52 218//52 217//52 231//52
f 220//53 218//53 232//53 230//53 228//53 226//53 224//53 222//53
f 217//54 219//54 221//54 223//54 225//54 227//54 229//54 231//54
f 218//55 220//55 219//55 217//55
f 220//56 222//56 221//56 219//56
f 254//57 256//57 255//57 253//57
f 256//58 258//58 257//58 255//58
f 258//59 260//59 259//59 257//59
f 260//60 262//60 261//60 259//60
f 262//61 264//61 263//61 261//61
f 264//62 250//62 249//62 263//62
f 252//63 250//63 264//63 262//63 260//63 258//63 256//63 254//63
f 249//64 251//64 253//64 255//64 257//64 259//64 261//64 263//64
f 250//65 252//65 251//65 249//65
f 252//66 254//66 253//66 251//66
f 286//67 288//67 287//67 285//67
f 288//68 290//68 289//68 287//68
f 290//69 292//69 291//69 289//69
f 292//70 294//70 293//70 291//70
f 294//71 296//71 295//71 293//71
f 296//72 282//72 281//72 295//72
f 284//73 282//73 296//73 294//73 292//73 290//73 288//73 286//73
f 281//74 283//74 285//74 287//74 289//74 291//74 293//74 295//74
f 282//75 284//75 283//75 281//75
f 284//76 286//76 285//76 283//76
f 318//77 320//77 319//77 317//77
f 320//78 322//78 321//78 319//78
f 322//79 324//79 323//79 321//79
f 324//80 326//80 325//80 323//80
f 326//81 328//81 327//81 325//81
f 328//82 314//82 313//82 327//82
f 316//83 314//83 328//83 326//83 324//83 322//83 320//83 318//83
f 313//84 315//84 317//84 319//84 321//84 323//84 325//84 327//84
f 314//85 316//85 315//85 313//85
f 316//86 318//86 317//86 315//86
f 362//5 41//5 45//5 361//5
f 359//9 37//9 41//9 362//9
f 51//9 43//9 364//9
f 364//10 43//10 47//10 363//10
usemtl Blue
f 47//9 48//9 361//9 363//9
f 361//9 45//9 46//9 363//9
usemtl Orange
f 168//10 164//10 166//10 162//10
f 165//5 161//5 163//5 167//5
f 163//87 162//87 166//87 167//87
f 161//7 168//7 162//7 163//7
f 165//88 164//88 168//88 161//88
f 167//9 166//9 164//9 165//9
f 176//10 172//10 174//10 170//10
f 173//5 169//5 171//5 175//5
f 171//87 170//87 174//87 175//87
f 169//7 176//7 170//7 171//7
f 173//88 172//88 176//88 169//88
f 175//9 174//9 172//9 173//9
f 184//10 180//10 182//10 178//10
f 181//5 177//5 179//5 183//5
f 179//87 178//87 182//87 183//87
f 177//7 184//7 178//7 179//7
f 181//88 180//88 184//88 177//88
f 183//9 182//9 180//9 181//9
f 192//10 188//10 190//10 186//10
f 189//5 185//5 187//5 191//5
f 187//87 186//87 190//87 191//87
f 185//7 192//7 186//7 187//7
f 189//88 188//88 192//88 185//88
f 191//9 190//9 188//9 189//9
f 200//10 196//10 198//10 194//10
f 197//5 193//5 195//5 199//5
f 195//87 194//87 198//87 199//87
f 193//7 200//7 194//7 195//7
f 197//88 196//88 200//88 193//88
f 199//9 198//9 196//9 197//9
f 208//10 204//10 206//10 202//10
f 205//5 201//5 203//5 207//5
f 203//87 202//87 206//87 207//87
f 201//7 208//7 202//7 203//7
f 205//88 204//88 208//88 201//88
f 207//9 206//9 204//9 205//9
f 216//10 212//10 214//10 210//10
f 213//5 209//5 211//5 215//5
f 211//87 210//87 214//87 215//87
f 209//7 216//7 210//7 211//7
f 213//88 212//88 216//88 209//88
f 215//9 214//9 212//9 213//9
