# Blender v2.80 (sub 75) OBJ File: 'BoatGameStuff.blend'
# www.blender.org
mtllib Motor.mtl
o Motor_Cube.002
v -0.123278 0.155598 1.906101
v -0.123278 0.605598 1.906101
v -0.123278 0.155598 1.513225
v -0.123278 0.605598 1.534154
v 0.123278 0.155598 1.906101
v 0.123278 0.605598 1.906101
v 0.123278 0.155598 1.513225
v 0.123278 0.605598 1.534154
v -0.169684 0.155598 1.634663
v -0.169684 0.155598 1.784663
v -0.169684 0.605598 1.784663
v -0.169684 0.605598 1.634663
v 0.169684 0.155598 1.784663
v 0.169684 0.155598 1.634663
v 0.169684 0.605598 1.634663
v 0.169684 0.605598 1.784663
v 0.056561 0.155598 1.497102
v -0.056561 0.155598 1.497102
v -0.056561 0.605598 1.505731
v 0.056561 0.605598 1.505731
v -0.056561 0.155598 1.922224
v 0.056561 0.155598 1.922224
v 0.056561 0.605598 1.922224
v -0.056561 0.605598 1.922224
v -0.066168 0.605598 1.634663
v 0.066168 0.605598 1.634663
v -0.066168 0.605598 1.784663
v 0.066168 0.605598 1.784663
v 0.072679 0.155598 1.706402
v -0.072679 0.155598 1.706402
v 0.066168 0.155598 1.784663
v -0.066168 0.155598 1.784663
v -0.169684 0.305598 1.934663
v -0.169684 0.455598 1.934663
v -0.169684 0.455598 1.484663
v -0.169684 0.305598 1.484663
v 0.169684 0.455598 1.484663
v 0.169684 0.305598 1.484663
v 0.169684 0.455598 1.934663
v 0.169684 0.305598 1.934663
v 0.198505 0.455598 1.634663
v 0.198505 0.305598 1.634663
v 0.198505 0.455598 1.784663
v 0.198505 0.305598 1.784663
v -0.218887 0.413895 1.742961
v -0.218887 0.347300 1.742961
v 0.066168 0.455598 1.934663
v 0.066168 0.305598 1.934663
v -0.066168 0.455598 1.934663
v -0.066168 0.305598 1.934663
v -0.066168 0.455598 1.484663
v -0.066168 0.305598 1.484663
v 0.066168 0.455598 1.484663
v 0.066168 0.305598 1.484663
v 0.075000 -0.374359 1.706402
v -0.075000 -0.374359 1.706402
v 0.075000 -0.374359 1.784663
v -0.075000 -0.374359 1.784663
v 0.075000 -0.510702 1.706402
v -0.075000 -0.510702 1.706402
v 0.075000 -0.510702 1.784663
v -0.075000 -0.510702 1.784663
v 0.075000 -0.374359 1.857616
v -0.075000 -0.374359 1.857616
v 0.075000 -0.510702 1.857616
v -0.075000 -0.510702 1.857616
v 0.075000 -0.374359 1.922917
v -0.075000 -0.374359 1.922917
v 0.075000 -0.510702 1.922917
v -0.075000 -0.510702 1.922917
v 0.275000 -0.374359 1.857616
v 0.275000 -0.510702 1.857616
v 0.275000 -0.374359 1.922917
v 0.275000 -0.510702 1.922917
v 0.075000 -0.174359 1.857616
v -0.075000 -0.174359 1.857616
v 0.075000 -0.174359 1.922917
v -0.075000 -0.174359 1.922917
v -0.275000 -0.374359 1.857616
v -0.275000 -0.510702 1.857616
v -0.275000 -0.374359 1.922917
v -0.275000 -0.510702 1.922917
v 0.075000 -0.710702 1.857616
v -0.075000 -0.710702 1.857616
v 0.075000 -0.710702 1.922917
v -0.075000 -0.710702 1.922917
v -0.218887 0.413895 1.676365
v -0.218887 0.347300 1.676365
v -0.313912 0.413895 1.742961
v -0.313912 0.347300 1.742961
v -0.313912 0.413895 1.676365
v -0.313912 0.347300 1.676365
v -0.385294 0.413895 1.742961
v -0.385294 0.347300 1.742961
v -0.385294 0.413895 1.676365
v -0.385294 0.347300 1.676365
v -0.317190 0.413895 1.266669
v -0.317190 0.347300 1.266669
v -0.385362 0.413895 1.266669
v -0.385362 0.347300 1.266669
v -0.317977 0.413895 1.087346
v -0.317977 0.347300 1.087346
v -0.385362 0.413895 1.087346
v -0.385362 0.347300 1.087346
vt 0.541667 0.166667
vt 0.625000 0.166667
vt 0.625000 0.250000
vt 0.541667 0.250000
vt 0.541667 0.416667
vt 0.625000 0.416667
vt 0.625000 0.500000
vt 0.541667 0.500000
vt 0.541667 0.666667
vt 0.625000 0.666667
vt 0.625000 0.750000
vt 0.541667 0.750000
vt 0.541667 0.916667
vt 0.625000 0.916667
vt 0.625000 1.000000
vt 0.541667 1.000000
vt 0.291667 0.666667
vt 0.375000 0.666667
vt 0.375000 0.750000
vt 0.291667 0.750000
vt 0.791667 0.666667
vt 0.875000 0.666667
vt 0.875000 0.750000
vt 0.791667 0.750000
vt 0.791667 0.500000
vt 0.875000 0.500000
vt 0.875000 0.583333
vt 0.791667 0.583333
vt 0.291667 0.500000
vt 0.375000 0.500000
vt 0.375000 0.583333
vt 0.291667 0.623188
vt 0.625000 0.583333
vt 0.541667 0.583333
vt 0.541667 0.000000
vt 0.625000 0.000000
vt 0.625000 0.083333
vt 0.541667 0.083333
vt 0.125000 0.583333
vt 0.208333 0.623188
vt 0.208333 0.666667
vt 0.125000 0.666667
vt 0.208333 0.623188
vt 0.208333 0.666667
vt 0.125000 0.500000
vt 0.208333 0.500000
vt 0.708333 0.583333
vt 0.708333 0.666667
vt 0.708333 0.500000
vt 0.708333 0.750000
vt 0.208333 0.750000
vt 0.125000 0.750000
vt 0.625000 0.833333
vt 0.541667 0.833333
vt 0.625000 0.333333
vt 0.541667 0.333333
vt 0.375000 0.333333
vt 0.458333 0.333333
vt 0.458333 0.416667
vt 0.375000 0.416667
vt 0.375000 0.250000
vt 0.458333 0.250000
vt 0.375000 0.833333
vt 0.458333 0.833333
vt 0.458333 0.916667
vt 0.375000 0.916667
vt 0.458333 0.750000
vt 0.375000 0.083333
vt 0.458333 0.083333
vt 0.458333 0.166667
vt 0.375000 0.166667
vt 0.375000 0.000000
vt 0.458333 0.000000
vt 0.458333 0.583333
vt 0.458333 0.666667
vt 0.458333 0.500000
vt 0.458333 1.000000
vt 0.375000 1.000000
vt 0.208333 0.623188
vt 0.208333 0.666667
vt 0.291667 0.666667
vt 0.291667 0.623188
vt 0.291667 0.623188
vt 0.291667 0.666667
vt 0.291667 0.666667
vt 0.291667 0.666667
vt 0.208333 0.666667
vt 0.208333 0.666667
vt 0.208333 0.666667
vt 0.208333 0.666667
vt 0.208333 0.666667
vt 0.208333 0.666667
vt 0.291667 0.666667
vt 0.291667 0.666667
vt 0.291667 0.666667
vt 0.208333 0.666667
vt 0.291667 0.666667
vt 0.291667 0.666667
vt 0.291667 0.666667
vt 0.291667 0.666667
vt 0.291667 0.666667
vt 0.291667 0.666667
vt 0.291667 0.666667
vt 0.208333 0.666667
vt 0.208333 0.666667
vt 0.208333 0.666667
vt 0.208333 0.666667
vt 0.208333 0.666667
vt 0.541667 0.166667
vt 0.541667 0.083333
vt 0.458333 0.166667
vt 0.458333 0.083333
vt 0.458333 0.083333
vt 0.458333 0.166667
vt 0.541667 0.083333
vt 0.541667 0.166667
vt 0.541667 0.166667
vt 0.541667 0.166667
vt 0.458333 0.166667
vt 0.458333 0.166667
vt 0.541667 0.166667
vt 0.541667 0.166667
vt 0.458333 0.166667
vt 0.458333 0.166667
vn -0.9269 0.2654 -0.2654
vn 0.1593 0.2541 -0.9540
vn 0.9310 0.2580 0.2580
vn -0.0932 0.1519 0.9840
vn 0.0000 -1.0000 0.0000
vn 0.0000 1.0000 -0.0000
vn 0.9204 0.2764 -0.2764
vn 0.9820 0.1887 0.0000
vn -0.9345 0.2518 0.2518
vn -0.9686 0.2486 0.0000
vn -0.9991 0.0105 0.0416
vn 0.0932 0.1519 0.9840
vn 0.0000 0.0826 0.9966
vn -0.1593 0.2541 -0.9540
vn 0.0000 0.1391 -0.9903
vn 0.0000 -0.0826 -0.9966
vn 0.0000 0.0000 -1.0000
vn -0.0932 -0.1519 -0.9840
vn 0.0000 -0.0826 0.9966
vn 0.0000 0.0000 1.0000
vn 0.0932 -0.1519 0.9840
vn -0.9686 -0.2486 0.0000
vn -0.9345 -0.2518 0.2518
vn -0.9686 0.0000 0.2486
vn 0.9820 -0.1887 0.0000
vn 1.0000 0.0000 0.0000
vn 0.9310 -0.2580 -0.2580
vn 0.9820 0.0000 -0.1887
vn -0.0932 -0.1519 0.9840
vn 0.9310 -0.2580 0.2580
vn 0.9820 0.0000 0.1887
vn 0.0932 -0.1519 -0.9840
vn -0.9345 -0.2518 -0.2518
vn -0.9686 0.0000 -0.2486
vn -1.0000 0.0000 0.0000
vn 0.9991 0.0105 0.0416
vn -1.0000 0.0000 0.0002
vn 1.0000 0.0000 -0.0080
vn 1.0000 0.0000 -0.0044
usemtl Material.005
s off
f 87/1/1 12/2/1 4/3/1 35/4/1
f 53/5/2 20/6/2 8/7/2 37/8/2
f 43/9/3 16/10/3 6/11/3 39/12/3
f 49/13/4 24/14/4 2/15/4 34/16/4
f 31/17/5 13/18/5 5/19/5 22/20/5
f 27/21/6 11/22/6 2/23/6 24/24/6
f 19/25/6 4/26/6 12/27/6 25/28/6
f 25/28/6 12/27/6 11/22/6 27/21/6
f 17/29/5 7/30/5 14/31/5 29/32/5
f 29/32/5 14/31/5 13/18/5 31/17/5
f 37/8/7 8/7/7 15/33/7 41/34/7
f 41/34/8 15/33/8 16/10/8 43/9/8
f 34/35/9 2/36/9 11/37/9 45/38/9
f 45/38/10 11/37/10 12/2/10 87/1/10
f 9/39/5 30/40/5 32/41/5 10/42/5
f 32/41/11 30/40/11 56/43/11 58/44/11
f 3/45/5 18/46/5 30/40/5 9/39/5
f 18/46/5 17/29/5 29/32/5 30/40/5
f 15/33/6 26/47/6 28/48/6 16/10/6
f 26/47/6 25/28/6 27/21/6 28/48/6
f 8/7/6 20/49/6 26/47/6 15/33/6
f 20/49/6 19/25/6 25/28/6 26/47/6
f 16/10/6 28/48/6 23/50/6 6/11/6
f 28/48/6 27/21/6 24/24/6 23/50/6
f 10/42/5 32/41/5 21/51/5 1/52/5
f 32/41/5 31/17/5 22/20/5 21/51/5
f 39/12/12 6/11/12 23/53/12 47/54/12
f 47/54/13 23/53/13 24/14/13 49/13/13
f 35/4/14 4/3/14 19/55/14 51/56/14
f 51/56/15 19/55/15 20/6/15 53/5/15
f 18/57/16 52/58/16 54/59/16 17/60/16
f 52/58/17 51/56/17 53/5/17 54/59/17
f 3/61/18 36/62/18 52/58/18 18/57/18
f 36/62/17 35/4/17 51/56/17 52/58/17
f 22/63/19 48/64/19 50/65/19 21/66/19
f 48/64/20 47/54/20 49/13/20 50/65/20
f 5/19/21 40/67/21 48/64/21 22/63/21
f 40/67/20 39/12/20 47/54/20 48/64/20
f 10/68/22 46/69/22 88/70/22 9/71/22
f 1/72/23 33/73/23 46/69/23 10/68/23
f 33/73/24 34/35/24 45/38/24 46/69/24
f 14/31/25 42/74/25 44/75/25 13/18/25
f 42/74/26 41/34/26 43/9/26 44/75/26
f 7/30/27 38/76/27 42/74/27 14/31/27
f 38/76/28 37/8/28 41/34/28 42/74/28
f 21/66/29 50/65/29 33/77/29 1/78/29
f 50/65/20 49/13/20 34/16/20 33/77/20
f 13/18/30 44/75/30 40/67/30 5/19/30
f 44/75/31 43/9/31 39/12/31 40/67/31
f 17/60/32 54/59/32 38/76/32 7/30/32
f 54/59/17 53/5/17 37/8/17 38/76/17
f 9/71/33 88/70/33 36/62/33 3/61/33
f 88/70/34 87/1/34 35/4/34 36/62/34
f 58/44/35 56/43/35 60/79/35 62/80/35
f 29/32/36 31/17/36 57/81/36 55/82/36
f 31/17/20 32/41/20 58/44/20 57/81/20
f 30/40/17 29/32/17 55/82/17 56/43/17
f 60/79/5 59/83/5 61/84/5 62/80/5
f 56/43/17 55/82/17 59/83/17 60/79/17
f 55/82/26 57/81/26 61/84/26 59/83/26
f 61/84/26 57/81/26 63/85/26 65/86/26
f 70/87/20 68/88/20 81/89/20 82/90/20
f 58/44/35 62/80/35 66/91/35 64/92/35
f 62/80/5 61/84/5 65/86/5 66/91/5
f 57/81/6 58/44/6 64/92/6 63/85/6
f 67/93/20 68/88/20 70/87/20 69/94/20
f 68/88/20 67/93/20 77/95/20 78/96/20
f 69/94/5 65/86/5 72/97/5 74/98/5
f 65/86/26 69/94/26 85/99/26 83/100/26
f 72/97/26 71/101/26 73/102/26 74/98/26
f 67/93/20 69/94/20 74/98/20 73/102/20
f 65/86/17 63/85/17 71/101/17 72/97/17
f 63/85/6 67/93/6 73/102/6 71/101/6
f 75/103/6 76/104/6 78/96/6 77/95/6
f 64/92/35 68/88/35 78/96/35 76/104/35
f 63/85/17 64/92/17 76/104/17 75/103/17
f 67/93/26 63/85/26 75/103/26 77/95/26
f 79/105/35 80/106/35 82/90/35 81/89/35
f 64/92/17 66/91/17 80/106/17 79/105/17
f 68/88/6 64/92/6 79/105/6 81/89/6
f 66/91/5 70/87/5 82/90/5 80/106/5
f 84/107/5 83/100/5 85/99/5 86/108/5
f 69/94/20 70/87/20 86/108/20 85/99/20
f 66/91/17 65/86/17 83/100/17 84/107/17
f 70/87/35 66/91/35 84/107/35 86/108/35
f 45/38/6 87/1/6 91/109/6 89/110/6
f 92/111/5 90/112/5 94/113/5 96/114/5
f 87/1/17 88/70/17 92/111/17 91/109/17
f 88/70/5 46/69/5 90/112/5 92/111/5
f 46/69/20 45/38/20 89/110/20 90/112/20
f 94/113/35 93/115/35 95/116/35 96/114/35
f 90/112/20 89/110/20 93/115/20 94/113/20
f 89/110/6 91/109/6 95/116/6 93/115/6
f 95/116/6 91/109/6 97/117/6 99/118/6
f 92/111/5 96/114/5 100/119/5 98/120/5
f 96/114/37 95/116/37 99/118/37 100/119/37
f 91/109/38 92/111/38 98/120/38 97/117/38
usemtl Material.006
f 99/118/6 97/117/6 101/121/6 103/122/6
f 101/121/17 102/123/17 104/124/17 103/122/17
f 100/119/35 99/118/35 103/122/35 104/124/35
f 98/120/5 100/119/5 104/124/5 102/123/5
f 97/117/39 98/120/39 102/123/39 101/121/39
